<?xml version="1.0" encoding="utf-8"?>
<!-- Generator: Adobe Illustrator 21.1.0, SVG Export Plug-In . SVG Version: 6.00 Build 0)  -->
<svg version="1.1"
	 id="svg2" inkscape:version="0.48.4 r9939" sodipodi:docname="instagram-logo-black-png.svg" xmlns:cc="http://creativecommons.org/ns#" xmlns:dc="http://purl.org/dc/elements/1.1/" xmlns:inkscape="http://www.inkscape.org/namespaces/inkscape" xmlns:rdf="http://www.w3.org/1999/02/22-rdf-syntax-ns#" xmlns:sodipodi="http://sodipodi.sourceforge.net/DTD/sodipodi-0.dtd" xmlns:svg="http://www.w3.org/2000/svg"
	 xmlns="http://www.w3.org/2000/svg" xmlns:xlink="http://www.w3.org/1999/xlink" x="0px" y="0px" viewBox="0 0 100 100"
	 style="enable-background:new 0 0 100 100;" xml:space="preserve">
<style type="text/css">
	.st0{fill:#FFFFFF;}
	.st1{fill:#CA433D;}
</style>
<title  id="title2997">Instagram icon</title>
<sodipodi:namedview  bordercolor="#666666" borderopacity="1" gridtolerance="10" guidetolerance="10" id="namedview16" inkscape:current-layer="svg2" inkscape:cx="75.986979" inkscape:cy="46.746849" inkscape:pageopacity="0" inkscape:pageshadow="2" inkscape:showpageshadow="false" inkscape:window-height="844" inkscape:window-maximized="1" inkscape:window-width="1600" inkscape:window-x="-4" inkscape:window-y="-4" inkscape:zoom="1" objecttolerance="10" pagecolor="#ffffff" showgrid="false">
	</sodipodi:namedview>
<g>
	<path class="st0" d="M33.1,33.4c0-0.3,2.8-2.5,4.5-3.5c2-1.2,4.4-2.2,6.9-2.9c3.1-0.8,8-0.8,11.2,0.1c3.8,1,7.5,2.9,10.2,5.3
		l1.5,1.2h15.7h15.7l-0.1-8.3c-0.1-7.7-0.1-8.4-0.6-10c-1-3.3-2.2-5.3-5.1-8.1c-2.9-2.8-4.8-4-8.1-5.1l-1.8-0.5L54.9,1.5L26.8,1.4
		l0,11.9l-0.1,11.9l-1.1,0.1c-0.6,0-1.3,0-1.5-0.2c-0.3-0.2-0.3-2.1-0.3-12V1.4H22h-1.8l0,11.9l-0.1,11.9L19,25.3
		c-0.6,0-1.3,0-1.5-0.2c-0.3-0.2-0.3-2.1-0.3-11.7c0-13,0.2-11.8-2.1-11.1l-1.3,0.4L13.6,14l-0.1,11.3l-1.2,0.1
		c-0.7,0-1.4,0-1.6-0.2c-0.3-0.2-0.3-1.9-0.3-10.2c0-9.2,0-10-0.4-10c-0.2,0-1.4,1-2.7,2.3c-2,2-2.4,2.6-3.5,4.8
		c-2,4-2,4.1-2.1,13.4l-0.1,8.2h15.8C26,33.6,33.1,33.5,33.1,33.4z M73.6,17.6l0.1-5.9l0.9-0.8l0.9-0.8h5.8c4.7,0,5.9,0.1,6.5,0.4
		c0.4,0.2,0.9,0.8,1.2,1.3c0.4,0.8,0.5,1.4,0.5,6.5c0,8.1,0.3,7.8-7.7,7.8c-6.1,0-6.8-0.2-7.6-1.7C73.6,23.5,73.5,23.1,73.6,17.6z"
		/>
	<path class="st0" d="M53.9,31.5c-1.6-0.3-4.9-0.4-6.5-0.2c-8.3,1.1-15,7.8-16.3,16.1c-0.4,2.4-0.2,6.3,0.5,8.6
		c0.9,3.2,2.2,5.2,4.9,8c2.7,2.8,4.5,3.9,7.3,4.8c11,3.5,22.3-2.6,25.1-13.6c0.6-2.4,0.7-7,0.1-9.3c-1-4-2.3-6.2-5.4-9.3
		C60.5,33.7,57.9,32.3,53.9,31.5z M63.2,54.4c-1.8,5.7-7.2,9.7-13,9.7c-2.1,0-3.7-0.4-6.1-1.5c-4.6-2.2-7.6-7-7.6-12.1
		c0-6.3,4.6-11.9,10.9-13.2c2-0.4,3-0.4,5,0c1.8,0.4,5.5,2.1,6.6,3.1c1.9,1.8,3.5,4.3,4.3,7C63.9,49.2,63.9,52.4,63.2,54.4z"/>
	<path class="st0" d="M69.8,36.3c0,0.2,0.4,0.9,0.8,1.6c4.4,7,4.9,15.9,1.2,23.3C68,68.8,61,73.6,52.5,74.6
		c-6.9,0.8-14.8-2.2-19.7-7.4c-2-2.1-3.1-3.7-4.5-6.8c-1.7-3.5-2.2-5.8-2.2-10c0-2.7,0.1-3.8,0.5-5.5c0.6-2.5,1.7-5.1,2.9-7
		c0.5-0.8,0.9-1.5,0.9-1.7c0-0.3-1.8-0.4-14.3-0.4H1.6l0.1,23.6l0.1,23.7L2.3,85c1,3.4,2.2,5.3,5.1,8.1c2.9,2.9,4.9,4.1,8.3,5.1
		l1.9,0.5h32.6h32.6l1.9-0.5c3.7-1.1,6.3-2.7,9.1-5.7c2-2.1,3.5-4.8,4.4-7.7l0.5-1.8l0.1-23.5l0.1-23.5H84.3
		C71.7,35.9,69.8,36,69.8,36.3z"/>
</g>
<path class="st1" d="M30.3,36.3c0,0.2-0.4,0.9-0.9,1.7c-1.2,1.9-2.3,4.6-2.9,7c-0.4,1.7-0.5,2.7-0.5,5.5c0,4.2,0.5,6.5,2.2,10
	c1.5,3.1,2.6,4.7,4.5,6.8c4.9,5.2,12.9,8.2,19.7,7.4c8.5-1,15.5-5.8,19.3-13.4c3.7-7.4,3.3-16.4-1.2-23.3c-0.5-0.7-0.8-1.5-0.8-1.6
	c0-0.3,1.9-0.4,14.5-0.4h14.4v-2.3H83.1H67.4L66,32.3c-2.8-2.4-6.5-4.3-10.2-5.3c-3.2-0.8-8.1-0.9-11.2-0.1
	c-2.5,0.7-4.9,1.6-6.9,2.9c-1.7,1-4.5,3.2-4.5,3.5c0,0.1-7.1,0.2-15.8,0.2H1.6v2.3H16C28.5,35.9,30.3,36,30.3,36.3z M31,47.5
	c1.3-8.3,8.1-14.9,16.3-16.1c1.6-0.2,4.9-0.1,6.5,0.2c4.1,0.8,6.7,2.2,9.7,5.2C66.7,39.8,68,42,69,46c0.6,2.2,0.5,6.8-0.1,9.3
	c-2.8,11-14.1,17.1-25.1,13.6c-2.8-0.9-4.6-2-7.3-4.8c-2.8-2.7-4-4.8-4.9-8C30.9,53.8,30.6,49.9,31,47.5z"/>
<path class="st1" d="M44.2,62.6c2.4,1.1,4,1.5,6.1,1.5c5.8,0,11.2-4,13-9.7c0.6-2,0.7-5.2,0.1-7.1c-0.8-2.7-2.4-5.2-4.3-7
	c-1.1-1-4.7-2.7-6.6-3.1c-2-0.4-3.1-0.4-5,0c-6.3,1.4-10.9,6.9-10.9,13.2C36.6,55.6,39.6,60.4,44.2,62.6z"/>
<path class="st1" d="M81.6,26c8,0,7.7,0.3,7.7-7.8c0-5.1,0-5.7-0.5-6.5c-0.3-0.5-0.8-1.1-1.2-1.3c-0.6-0.3-1.7-0.4-6.5-0.4h-5.8
	l-0.9,0.8l-0.9,0.8l-0.1,5.9c-0.1,5.5,0,5.9,0.4,6.8C74.8,25.9,75.5,26,81.6,26z"/>
<path class="st1" d="M24.1,25.1c0.2,0.2,0.8,0.3,1.5,0.2l1.1-0.1l0.1-11.9l0-11.8h-3.1v11.6C23.7,23,23.8,24.9,24.1,25.1z"/>
<path class="st1" d="M10.7,25.1c0.2,0.2,0.9,0.3,1.6,0.2l1.2-0.1L13.6,14l0.1-11c-1.3,0.5-2.5,1.2-3.7,2c0.2,0.3,0.3,2.1,0.3,9.9
	C10.3,23.2,10.4,24.9,10.7,25.1z"/>
<path class="st1" d="M17.2,13.4c0,9.6,0,11.5,0.3,11.7c0.2,0.2,0.8,0.3,1.5,0.2l1.1-0.1l0.1-11.9l0-11.7c-1.2,0.1-2.3,0.2-3.5,0.5
	C17.2,2.7,17.2,5.2,17.2,13.4z"/>
</svg>
