<?xml version="1.0" encoding="utf-8"?>
<!-- Generator: Adobe Illustrator 21.1.0, SVG Export Plug-In . SVG Version: 6.00 Build 0)  -->
<svg version="1.1"
	 id="svg2" inkscape:version="0.48.4 r9939" sodipodi:docname="instagram-logo-black-png.svg" xmlns:cc="http://creativecommons.org/ns#" xmlns:dc="http://purl.org/dc/elements/1.1/" xmlns:inkscape="http://www.inkscape.org/namespaces/inkscape" xmlns:rdf="http://www.w3.org/1999/02/22-rdf-syntax-ns#" xmlns:sodipodi="http://sodipodi.sourceforge.net/DTD/sodipodi-0.dtd" xmlns:svg="http://www.w3.org/2000/svg"
	 xmlns="http://www.w3.org/2000/svg" xmlns:xlink="http://www.w3.org/1999/xlink" x="0px" y="0px" viewBox="0 0 100 100"
	 style="enable-background:new 0 0 100 100;" xml:space="preserve">
<style type="text/css">
	.st0{fill:#FFFFFF;}
	.st1{fill:#74AA35;}
	.st2{fill:none;stroke:#73AF33;stroke-width:1.1157;stroke-miterlimit:10;}
	.st3{fill:#FFFFFF;stroke:#73AF33;stroke-width:1.1157;stroke-miterlimit:10;}
	.st4{fill:#CA433D;}
</style>
<title  id="title2997">Instagram icon</title>
<sodipodi:namedview  bordercolor="#666666" borderopacity="1" gridtolerance="10" guidetolerance="10" id="namedview16" inkscape:current-layer="svg2" inkscape:cx="75.986979" inkscape:cy="46.746849" inkscape:pageopacity="0" inkscape:pageshadow="2" inkscape:showpageshadow="false" inkscape:window-height="844" inkscape:window-maximized="1" inkscape:window-width="1600" inkscape:window-x="-4" inkscape:window-y="-4" inkscape:zoom="1" objecttolerance="10" pagecolor="#ffffff" showgrid="false">
	</sodipodi:namedview>
<g>
	<path class="st0" d="M33.1,33.4c0-0.3,2.8-2.5,4.5-3.5c2-1.2,4.4-2.2,6.9-2.9c3.1-0.8,8-0.8,11.2,0.1c3.8,1,7.5,2.9,10.2,5.3
		l1.5,1.2h15.7h15.7l-0.1-8.3c-0.1-7.7-0.1-8.4-0.6-10c-1-3.3-2.2-5.3-5.1-8.1c-2.9-2.8-4.8-4-8.1-5.1l-1.8-0.5L54.9,1.5L26.8,1.4
		l0,11.9l-0.1,11.9l-1.1,0.1c-0.6,0-1.3,0-1.5-0.2c-0.3-0.2-0.3-2.1-0.3-12V1.4H22h-1.8l0,11.9l-0.1,11.9L19,25.3
		c-0.6,0-1.3,0-1.5-0.2c-0.3-0.2-0.3-2.1-0.3-11.7c0-13,0.2-11.8-2.1-11.1l-1.3,0.4L13.6,14l-0.1,11.3l-1.2,0.1
		c-0.7,0-1.4,0-1.6-0.2c-0.3-0.2-0.3-1.9-0.3-10.2c0-9.2,0-10-0.4-10c-0.2,0-1.4,1-2.7,2.3c-2,2-2.4,2.6-3.5,4.8
		c-2,4-2,4.1-2.1,13.4l-0.1,8.2h15.8C26,33.6,33.1,33.5,33.1,33.4z M73.6,17.6l0.1-5.9l0.9-0.8l0.9-0.8h5.8c4.7,0,5.9,0.1,6.5,0.4
		c0.4,0.2,0.9,0.8,1.2,1.3c0.4,0.8,0.5,1.4,0.5,6.5c0,8.1,0.3,7.8-7.7,7.8c-6.1,0-6.8-0.2-7.6-1.7C73.6,23.5,73.5,23.1,73.6,17.6z"
		/>
	<path class="st0" d="M53.9,31.5c-1.6-0.3-4.9-0.4-6.5-0.2c-8.3,1.1-15,7.8-16.3,16.1c-0.4,2.4-0.2,6.3,0.5,8.6
		c0.9,3.2,2.2,5.2,4.9,8c2.7,2.8,4.5,3.9,7.3,4.8c11,3.5,22.3-2.6,25.1-13.6c0.6-2.4,0.7-7,0.1-9.3c-1-4-2.3-6.2-5.4-9.3
		C60.5,33.7,57.9,32.3,53.9,31.5z M63.2,54.4c-1.8,5.7-7.2,9.7-13,9.7c-2.1,0-3.7-0.4-6.1-1.5c-4.6-2.2-7.6-7-7.6-12.1
		c0-6.3,4.6-11.9,10.9-13.2c2-0.4,3-0.4,5,0c1.8,0.4,5.5,2.1,6.6,3.1c1.9,1.8,3.5,4.3,4.3,7C63.9,49.2,63.9,52.4,63.2,54.4z"/>
	<path class="st0" d="M69.8,36.3c0,0.2,0.4,0.9,0.8,1.6c4.4,7,4.9,15.9,1.2,23.3C68,68.8,61,73.6,52.5,74.6
		c-6.9,0.8-14.8-2.2-19.7-7.4c-2-2.1-3.1-3.7-4.5-6.8c-1.7-3.5-2.2-5.8-2.2-10c0-2.7,0.1-3.8,0.5-5.5c0.6-2.5,1.7-5.1,2.9-7
		c0.5-0.8,0.9-1.5,0.9-1.7c0-0.3-1.8-0.4-14.3-0.4H1.6l0.1,23.6l0.1,23.7L2.3,85c1,3.4,2.2,5.3,5.1,8.1c2.9,2.9,4.9,4.1,8.3,5.1
		l1.9,0.5h32.6h32.6l1.9-0.5c3.7-1.1,6.3-2.7,9.1-5.7c2-2.1,3.5-4.8,4.4-7.7l0.5-1.8l0.1-23.5l0.1-23.5H84.3
		C71.7,35.9,69.8,36,69.8,36.3z"/>
</g>
<g id="g6_1_" transform="matrix(0.01880253,0,0,-0.01877464,-8.09169,88.053468)">
	<path id="path10_1_" inkscape:connector-curvature="0" class="st1" d="M11006.6,3980.1l-3.8-635l-60-3.8
		c-33.7-2.5-68.7,2.5-78.7,11.2c-15,12.5-17.5,112.5-17.5,625c0,693.7,12.5,627.5-112.5,588.7l-68.7-22.5l-6.2-598.7l-6.2-600
		l-66.2-3.8c-38.7-2.5-75,2.5-85,11.2c-15,12.5-17.5,102.5-17.5,543.7c0,487.5-1.2,530-21.2,530c-11.2,0-75-55-142.5-122.5
		c-107.5-108.7-128.7-138.7-183.7-253.7c-105-215-106.2-220-111.2-713.7l-6.2-435h838.7c461.2,0,838.7,5,838.7,10
		c0,16.2,148.7,133.7,238.7,187.5c108.7,66.2,235,118.7,368.7,153.7c163.7,42.5,425,41.2,593.7-3.8c200-53.7,396.2-155,545-281.2
		l77.5-66.2h832.5h833.7l-5,441.2c-5,411.2-7.5,446.2-33.7,533.7c-52.5,177.5-116.2,280-268.7,432.5
		c-152.5,151.2-253.7,215-432.5,270l-93.7,28.7l-1496.2,3.8l-1497.5,3.8l-2.5-635l-3.8-635l-60-3.8c-33.7-2.5-68.7,2.5-78.7,11.2
		c-15,12.5-17.5,113.7-17.5,637.5v623.7h-93.7h-93.7L11006.6,3980.1z M14596.5,4132.6c21.2-11.2,48.7-41.2,62.5-68.7
		c22.5-45,25-73.7,25-346.2c0-430,13.8-416.2-411.2-416.2c-322.5,0-361.2,8.7-402.5,90c-23.8,46.2-25,68.7-21.2,361.2l3.8,313.7
		l46.2,42.5l47.5,42.5h306.2C14504,4151.4,14566.5,4147.6,14596.5,4132.6z"/>
	<path id="path12_1_" inkscape:connector-curvature="0" class="st1" d="M12452.8,3017.6c-440-61.2-797.5-413.7-868.7-857.5
		c-21.2-128.7-10-337.5,25-458.7c48.7-171.2,115-278.7,262.5-425c146.2-147.5,241.2-208.7,390-256.2c585-185,1185,140,1336.2,725
		c33.7,130,36.2,375,6.2,493.7c-55,213.7-122.5,330-288.7,493.7c-161.2,161.2-300,233.7-516.2,276.2
		C12712.8,3025.1,12540.3,3030.1,12452.8,3017.6z M12727.8,2707.7c97.5-20,292.5-112.5,350-166.2
		c101.2-93.7,183.7-228.7,226.2-372.5c31.2-102.5,27.5-272.5-6.2-380c-95-301.2-382.5-516.2-688.7-516.2
		c-112.5,0-198.7,22.5-325,82.5c-243.7,115-403.7,371.2-403.7,646.2c-1.2,336.2,242.5,632.5,580,705
		C12565.3,2730.2,12621.5,2730.2,12727.8,2707.7z"/>
	<path id="path14_1_" inkscape:connector-curvature="0" class="st1" d="M10024.1,1517.7l3.8-1260l28.8-93.7
		c55-178.7,118.7-280,270-432.5c155-153.7,258.7-217.5,440-270l98.7-28.7h1731.2h1731.2l98.7,28.7
		c198.7,57.5,337.5,143.7,486.2,302.5c103.7,110,188.7,257.5,236.2,412.5l28.7,93.7l3.8,1253.7l3.8,1252.5h-770
		c-670,0-768.7-2.5-768.7-18.7c0-10,20-50,45-87.5c236.2-371.2,260-847.5,62.5-1242.5c-202.5-402.5-575-661.2-1028.7-713.7
		c-365-42.5-787.5,115-1050,392.5c-105,110-163.7,197.5-241.2,361.2c-91.2,188.7-117.5,311.2-117.5,533.7
		c0,146.2,5,202.5,27.5,292.5c32.5,131.2,92.5,273.7,156.2,373.7c25,40,46.2,80,46.2,90c0,16.2-97.5,18.7-762.5,18.7h-763.7
		L10024.1,1517.7z"/>
</g>
<path class="st2" d="M257.8,98.6H200c-10.8,0-19.6-8.8-19.6-19.6V21.1c0-10.8,8.8-19.6,19.6-19.6h57.8c10.8,0,19.6,8.8,19.6,19.6V79
	C277.4,89.8,268.6,98.6,257.8,98.6z"/>
<g id="g6_2_" transform="matrix(0.01880253,0,0,-0.01877464,-8.09169,88.053468)">
	<path id="path10_2_" inkscape:connector-curvature="0" class="st1" d="M19020.8,3980.1l-3.8-635l-60-3.8
		c-33.7-2.5-68.7,2.5-78.7,11.2c-15,12.5-17.5,112.5-17.5,625c0,693.7,12.5,627.5-112.5,588.7l-68.7-22.5l-6.2-598.7l-6.2-600
		l-66.2-3.8c-38.8-2.5-75,2.5-85,11.2c-15,12.5-17.5,102.5-17.5,543.7c0,487.5-1.2,530-21.2,530c-11.2,0-75-55-142.5-122.5
		c-107.5-108.7-128.7-138.7-183.7-253.7c-105-215-106.2-220-111.2-713.7l-6.2-435h838.7c461.2,0,838.7,5,838.7,10
		c0,16.2,148.7,133.7,238.7,187.5c108.7,66.2,235,118.7,368.7,153.7c163.7,42.5,425,41.2,593.7-3.8c200-53.7,396.2-155,545-281.2
		l77.5-66.2h832.5h833.7l-5,441.2c-5,411.2-7.5,446.2-33.8,533.7c-52.5,177.5-116.2,280-268.7,432.5
		c-152.5,151.2-253.7,215-432.5,270l-93.7,28.7l-1496.2,3.8l-1497.5,3.8l-2.5-635l-3.8-635l-60-3.8c-33.8-2.5-68.7,2.5-78.7,11.2
		c-15,12.5-17.5,113.7-17.5,637.5v623.7h-93.7h-93.7L19020.8,3980.1z M22610.7,4132.6c21.2-11.2,48.8-41.2,62.5-68.7
		c22.5-45,25-73.7,25-346.2c0-430,13.8-416.2-411.2-416.2c-322.5,0-361.2,8.7-402.5,90c-23.8,46.2-25,68.7-21.2,361.2l3.8,313.7
		l46.2,42.5l47.5,42.5h306.2C22518.2,4151.4,22580.7,4147.6,22610.7,4132.6z"/>
	<path id="path12_2_" inkscape:connector-curvature="0" class="st1" d="M20467,3017.6c-440-61.2-797.5-413.7-868.7-857.5
		c-21.2-128.7-10-337.5,25-458.7c48.7-171.2,115-278.7,262.5-425c146.2-147.5,241.2-208.7,390-256.2c585-185,1185,140,1336.2,725
		c33.8,130,36.2,375,6.2,493.7c-55,213.7-122.5,330-288.7,493.7c-161.2,161.2-300,233.7-516.2,276.2
		C20727,3025.1,20554.5,3030.1,20467,3017.6z M20742,2707.7c97.5-20,292.5-112.5,350-166.2c101.2-93.7,183.7-228.7,226.2-372.5
		c31.2-102.5,27.5-272.5-6.2-380c-95-301.2-382.5-516.2-688.7-516.2c-112.5,0-198.7,22.5-325,82.5
		c-243.7,115-403.7,371.2-403.7,646.2c-1.2,336.2,242.5,632.5,580,705C20579.5,2730.2,20635.8,2730.2,20742,2707.7z"/>
	<path id="path14_2_" inkscape:connector-curvature="0" class="st1" d="M18038.3,1517.7l3.8-1260l28.8-93.7
		c55-178.7,118.7-280,270-432.5c155-153.7,258.7-217.5,440-270l98.7-28.7h1731.2H22342l98.7,28.7
		c198.7,57.5,337.5,143.7,486.2,302.5c103.7,110,188.7,257.5,236.2,412.5l28.8,93.7l3.8,1253.7l3.8,1252.5h-770
		c-670,0-768.7-2.5-768.7-18.7c0-10,20-50,45-87.5c236.2-371.2,260-847.5,62.5-1242.5c-202.5-402.5-575-661.2-1028.7-713.7
		c-365-42.5-787.5,115-1050,392.5c-105,110-163.7,197.5-241.2,361.2c-91.2,188.7-117.5,311.2-117.5,533.7
		c0,146.2,5,202.5,27.5,292.5c32.5,131.2,92.5,273.7,156.2,373.7c25,40,46.2,80,46.2,90c0,16.2-97.5,18.7-762.5,18.7h-763.7
		L18038.3,1517.7z"/>
</g>
<path class="st2" d="M408.5,98.6h-57.8c-10.8,0-19.6-8.8-19.6-19.6V21.1c0-10.8,8.8-19.6,19.6-19.6h57.8c10.8,0,19.6,8.8,19.6,19.6
	V79C428.1,89.8,419.3,98.6,408.5,98.6z"/>
<g>
	<polygon class="st3" points="112.8,-103.8 112.8,-108.4 112.8,-103.8 	"/>
	<path class="st3" d="M112.6-118.7c-0.1-1.8-0.2-2.4-0.5-3.4c-1-3.3-2.2-5.3-5.1-8.1c-2.9-2.8-4.8-4-8.1-5.1l-1.8-0.5l-3.8,0
		C103.3-135.7,111.4-128.3,112.6-118.7z"/>
	<path class="st3" d="M24.1-132.3c0-0.1-0.1-0.1-0.1-0.1c-0.2,0-1.4,1-2.7,2.3c-2,2-2.4,2.6-3.5,4.8c-1.2,2.5-1.7,3.5-1.9,6.2
		C16.8-124.6,19.8-129.3,24.1-132.3z"/>
	<polygon class="st3" points="15.7,-103.8 15.7,-103.8 15.7,-107.4 	"/>
	<path class="st3" d="M29.1-135l-1.3,0.4l0,0.3c1-0.4,2-0.7,3-1C30.5-135.7,30-135.3,29.1-135z"/>
	<polygon class="st3" points="69,-135.9 40.9,-136 40.9,-135.8 89.1,-135.8 	"/>
	<path class="st3" d="M37.8-135.8L37.8-135.8l-1.8-0.1h-1.8l0,0.1c0.3,0,0.7-0.1,1-0.1H37.8z"/>
	<path class="st3" d="M93.2-38.8H35.3c-10.1,0-18.5-7.7-19.5-17.6l0,2.2l0.5,1.8c1,3.4,2.2,5.3,5.1,8.1c2.9,2.9,4.9,4.1,8.3,5.1
		l1.9,0.5h32.6h32.6l1.9-0.5c3.7-1.1,6.3-2.7,9.1-5.7c2-2.1,3.5-4.8,4.4-7.7l0.5-1.8l0-2C111.6-46.5,103.3-38.8,93.2-38.8z"/>
	<polygon class="st3" points="112.8,-101.4 112.8,-92 112.8,-101.4 	"/>
	<polygon class="st3" points="15.7,-101.4 15.7,-91.9 15.7,-101.4 	"/>
	<path class="st3" d="M112.8-108.4v-7.9c0-0.8-0.1-1.7-0.2-2.5c0.1,1.3,0.1,3.4,0.1,6.7L112.8-108.4z"/>
	<path class="st3" d="M15.7-91.9v33.5c0,0.7,0,1.4,0.1,2l-0.1-21.5L15.7-91.9z"/>
	<path class="st0" d="M58.2-74.8c2.4,1.1,4,1.5,6.1,1.5c5.8,0,11.2-4,13-9.7c0.6-2,0.7-5.2,0.1-7.1c-0.8-2.7-2.4-5.2-4.3-7
		c-1.1-1-4.7-2.7-6.6-3.1c-2-0.4-3.1-0.4-5,0c-6.3,1.4-10.9,6.9-10.9,13.2C50.7-81.7,53.7-76.9,58.2-74.8z"/>
	<path class="st3" d="M93.2-135.8h-4.1l4.3,0C93.3-135.8,93.2-135.8,93.2-135.8z"/>
	<path class="st3" d="M38.1-112.3c0.2,0.2,0.8,0.3,1.5,0.2l1.1-0.1l0.1-11.9l0-11.8h-3.1v11.6C37.8-114.4,37.8-112.5,38.1-112.3z"/>
	<path class="st3" d="M112.7-56.4c0.1-0.7,0.1-1.4,0.1-2V-92l0,14L112.7-56.4z"/>
	<path class="st3" d="M16-119.2c-0.1,1-0.2,2-0.2,3v8.8l0.1-4.6C15.8-115.4,15.8-117.6,16-119.2z"/>
	<path class="st3" d="M95.6-111.3c8,0,7.7,0.3,7.7-7.8c0-5.1,0-5.7-0.5-6.5c-0.3-0.5-0.8-1.1-1.2-1.3c-0.6-0.3-1.7-0.4-6.5-0.4h-5.8
		l-0.9,0.8l-0.9,0.8l-0.1,5.9c-0.1,5.5,0,5.9,0.4,6.8C88.8-111.5,89.6-111.3,95.6-111.3z"/>
	<path class="st3" d="M24.7-112.3c0.2,0.2,0.9,0.3,1.6,0.2l1.2-0.1l0.1-11.3l0.1-11c-1.3,0.5-2.5,1.2-3.7,2c0.2,0.3,0.3,2.1,0.3,9.9
		C24.4-114.2,24.5-112.5,24.7-112.3z"/>
	<path class="st3" d="M31.2-124c0,9.6,0,11.5,0.3,11.7c0.2,0.2,0.8,0.3,1.5,0.2l1.1-0.1l0.1-11.9l0-11.7c-1.2,0.1-2.3,0.2-3.5,0.5
		C31.3-134.7,31.2-132.1,31.2-124z"/>
	<path class="st0" d="M44.4-101.1c0,0.2-0.4,0.9-0.9,1.7c-1.2,1.9-2.3,4.6-2.9,7c-0.4,1.7-0.5,2.7-0.5,5.5c0,4.2,0.5,6.5,2.2,10
		c1.5,3.1,2.6,4.7,4.5,6.8c4.9,5.2,12.9,8.2,19.7,7.4c8.5-1,15.5-5.8,19.3-13.4c3.7-7.4,3.3-16.4-1.2-23.3c-0.5-0.7-0.8-1.5-0.8-1.6
		c0-0.3,1.9-0.4,14.5-0.4h14.4v-2.3H97.1H81.5L80-105c-2.8-2.4-6.5-4.3-10.2-5.3c-3.2-0.8-8.1-0.9-11.2-0.1
		c-2.5,0.7-4.9,1.6-6.9,2.9c-1.7,1-4.5,3.2-4.5,3.5c0,0.1-7.1,0.2-15.8,0.2H15.1v2.3H30C42.5-101.4,44.4-101.4,44.4-101.1z
		 M45.1-89.9c1.3-8.3,8.1-14.9,16.3-16.1c1.6-0.2,4.9-0.1,6.5,0.2c4.1,0.8,6.7,2.2,9.7,5.2c3.1,3.1,4.4,5.3,5.4,9.3
		c0.6,2.2,0.5,6.8-0.1,9.3c-2.8,11-14.1,17.1-25.1,13.6c-2.8-0.9-4.6-2-7.3-4.8c-2.8-2.7-4-4.8-4.9-8C44.9-83.5,44.7-87.5,45.1-89.9
		z"/>
</g>
<path class="st4" d="M30.3,36.3c0,0.2-0.4,0.9-0.9,1.7c-1.2,1.9-2.3,4.6-2.9,7c-0.4,1.7-0.5,2.7-0.5,5.5c0,4.2,0.5,6.5,2.2,10
	c1.5,3.1,2.6,4.7,4.5,6.8c4.9,5.2,12.9,8.2,19.7,7.4c8.5-1,15.5-5.8,19.3-13.4c3.7-7.4,3.3-16.4-1.2-23.3c-0.5-0.7-0.8-1.5-0.8-1.6
	c0-0.3,1.9-0.4,14.5-0.4h14.4v-2.3H83.1H67.4L66,32.3c-2.8-2.4-6.5-4.3-10.2-5.3c-3.2-0.8-8.1-0.9-11.2-0.1
	c-2.5,0.7-4.9,1.6-6.9,2.9c-1.7,1-4.5,3.2-4.5,3.5c0,0.1-7.1,0.2-15.8,0.2H1.6v2.3H16C28.5,35.9,30.3,36,30.3,36.3z M31,47.5
	c1.3-8.3,8.1-14.9,16.3-16.1c1.6-0.2,4.9-0.1,6.5,0.2c4.1,0.8,6.7,2.2,9.7,5.2C66.7,39.8,68,42,69,46c0.6,2.2,0.5,6.8-0.1,9.3
	c-2.8,11-14.1,17.1-25.1,13.6c-2.8-0.9-4.6-2-7.3-4.8c-2.8-2.7-4-4.8-4.9-8C30.9,53.8,30.6,49.9,31,47.5z"/>
<path class="st4" d="M44.2,62.6c2.4,1.1,4,1.5,6.1,1.5c5.8,0,11.2-4,13-9.7c0.6-2,0.7-5.2,0.1-7.1c-0.8-2.7-2.4-5.2-4.3-7
	c-1.1-1-4.7-2.7-6.6-3.1c-2-0.4-3.1-0.4-5,0c-6.3,1.4-10.9,6.9-10.9,13.2C36.6,55.6,39.6,60.4,44.2,62.6z"/>
<path class="st4" d="M81.6,26c8,0,7.7,0.3,7.7-7.8c0-5.1,0-5.7-0.5-6.5c-0.3-0.5-0.8-1.1-1.2-1.3c-0.6-0.3-1.7-0.4-6.5-0.4h-5.8
	l-0.9,0.8l-0.9,0.8l-0.1,5.9c-0.1,5.5,0,5.9,0.4,6.8C74.8,25.9,75.5,26,81.6,26z"/>
<path class="st4" d="M24.1,25.1c0.2,0.2,0.8,0.3,1.5,0.2l1.1-0.1l0.1-11.9l0-11.8h-3.1v11.6C23.7,23,23.8,24.9,24.1,25.1z"/>
<path class="st4" d="M10.7,25.1c0.2,0.2,0.9,0.3,1.6,0.2l1.2-0.1L13.6,14l0.1-11c-1.3,0.5-2.5,1.2-3.7,2c0.2,0.3,0.3,2.1,0.3,9.9
	C10.3,23.2,10.4,24.9,10.7,25.1z"/>
<path class="st4" d="M17.2,13.4c0,9.6,0,11.5,0.3,11.7c0.2,0.2,0.8,0.3,1.5,0.2l1.1-0.1l0.1-11.9l0-11.7c-1.2,0.1-2.3,0.2-3.5,0.5
	C17.2,2.7,17.2,5.2,17.2,13.4z"/>
</svg>
